<svg xmlns="http://www.w3.org/2000/svg" width="64" height="64" viewBox="0 0 64 64" version="1.1">
	<path d="M 27.110 23.396 C 24.278 24.965, 22.085 28.597, 22.035 31.800 C 21.925 38.969, 29.991 44.216, 36.097 40.948 C 38.046 39.905, 38.046 39.874, 36.032 37.313 C 33.442 34.021, 33.442 29.979, 36.032 26.687 C 38.046 24.126, 38.046 24.095, 36.097 23.052 C 33.472 21.647, 30.027 21.779, 27.110 23.396 M 27.174 27.314 C 24.354 30.317, 24.409 34.096, 27.314 36.826 C 30.345 39.672, 33.517 39.834, 32.035 37.066 C 31.466 36.002, 31 33.722, 31 32 C 31 30.278, 31.466 27.998, 32.035 26.934 C 33.569 24.068, 29.959 24.350, 27.174 27.314" stroke="none" fill="black" fill-rule="evenodd"/>
</svg>